<?xml version="1.0" encoding="UTF-8"?>
<svg version="1.1" xmlns="http://www.w3.org/2000/svg" width="727" height="584">
<path d="M0 0 C239.91 0 479.82 0 727 0 C727 192.72 727 385.44 727 584 C487.09 584 247.18 584 0 584 C0 391.28 0 198.56 0 0 Z " fill="#232934" transform="translate(0,0)"/>
<path d="M0 0 C0 29.04 0 58.08 0 88 C-4.29 89.32 -8.58 90.64 -13 92 C-20.7201099 96.11070787 -25.67874769 101.36267876 -30 109 C-39.25302376 141.38558315 -32.64170629 176.32039089 -33 210 C-158.73 210 -284.46 210 -414 210 C-414 202.74 -414 195.48 -414 188 C-412.16662582 188.00745743 -410.33325165 188.01491486 -408.44432068 188.02259827 C-391.12795224 188.08714345 -373.8120915 188.10468478 -356.49561977 188.07515812 C-347.59394246 188.06117069 -338.6928616 188.06373453 -329.79125977 188.10620117 C-322.0263538 188.14320198 -314.26217541 188.14819173 -306.49723774 188.11582941 C-302.39104765 188.09980496 -298.28622082 188.09907092 -294.18014336 188.13676643 C-270.31896437 189.01307837 -270.31896437 189.01307837 -250 178 C-247.14997923 175.13179168 -244.73109238 172.26450071 -242.4375 168.9375 C-241.88771484 168.18662109 -241.33792969 167.43574219 -240.77148438 166.66210938 C-238.60291512 163.69283763 -236.47652231 160.69966853 -234.40673828 157.66064453 C-233.89224121 156.9282959 -233.37774414 156.19594727 -232.84765625 155.44140625 C-232.39527588 154.77955322 -231.94289551 154.1177002 -231.47680664 153.43579102 C-230 152 -230 152 -226 152 C-224.515625 153.42578125 -224.515625 153.42578125 -223.25 155.3125 C-222.82203125 155.92738281 -222.3940625 156.54226562 -221.953125 157.17578125 C-221 159 -221 159 -221 162 C-220.42765625 162.21269531 -219.8553125 162.42539063 -219.265625 162.64453125 C-216.20830846 164.47364994 -214.78323439 166.77295358 -212.75 169.6875 C-208.06776921 176.18540882 -202.96411138 182.66904057 -195 185 C-193.80375 185.49628906 -192.6075 185.99257812 -191.375 186.50390625 C-184.29817709 188.87117094 -176.82087215 188.57421059 -169.4375 188.6875 C-167.93682025 188.72073316 -166.43616789 188.75522819 -164.93554688 188.79101562 C-161.29056546 188.87522804 -157.64550976 188.94235719 -154 189 C-154.06154408 180.21055486 -154.13888498 171.42142516 -154.23571491 162.63229752 C-154.2802081 158.54997021 -154.31950881 154.46773787 -154.34643555 150.38525391 C-154.37268089 146.4363307 -154.41322814 142.48777723 -154.46318626 138.53908539 C-154.47971294 137.04186394 -154.49131472 135.54457876 -154.49761391 134.04727936 C-154.55394983 121.8734491 -154.81621789 109.56645331 -163.61328125 100.30078125 C-170.18398754 94.02936179 -178.10521633 89.77895673 -187 88 C-187 77.11 -187 66.22 -187 55 C-178.89148055 52.1041002 -171.15921685 49.38303044 -162.921875 47.109375 C-159.91609709 46.27356058 -156.93395834 45.37390598 -153.953125 44.453125 C-153.07221191 44.18234131 -152.19129883 43.91155762 -151.28369141 43.63256836 C-149.55522047 43.09942475 -147.82823351 42.56143757 -146.10302734 42.01782227 C-145.29816895 41.77088623 -144.49331055 41.5239502 -143.6640625 41.26953125 C-142.95717285 41.04885986 -142.2502832 40.82818848 -141.52197266 40.60083008 C-138.07087462 39.7786469 -134.5202885 39.44003606 -131 39 C-131 88.5 -131 138 -131 189 C-123.08 189 -115.16 189 -107 189 C-107 136.86 -107 84.72 -107 31 C-86 24 -86 24 -80 24 C-80 78.45 -80 132.9 -80 189 C-72.41 189 -64.82 189 -57 189 C-57 131.91 -57 74.82 -57 16 C-27.92461623 7.05372807 -27.92461623 7.05372807 -17.51953125 4.03125 C-13.65642292 2.89932925 -9.81402928 1.70856513 -5.98046875 0.48046875 C-4 0 -4 0 0 0 Z " fill="#E5CD98" transform="translate(588,61)"/>
<path d="M0 0 C48.3927312 -0.0228642 96.78546185 -0.04049712 145.17819738 -0.05106533 C150.88499292 -0.05231611 156.59178846 -0.05361043 162.29858398 -0.05493164 C163.43475529 -0.05519395 164.57092659 -0.05545626 165.74152733 -0.05572652 C184.16398728 -0.06008369 202.58644413 -0.0679715 221.00890224 -0.0771528 C239.89706415 -0.08648802 258.78522442 -0.09205533 277.67338854 -0.09408849 C289.33837987 -0.095464 301.00336243 -0.09981604 312.66835106 -0.10791647 C320.65590812 -0.11318231 328.64346061 -0.11480467 336.63101929 -0.11350138 C341.24673154 -0.11285774 345.86242842 -0.11387835 350.47813797 -0.11920547 C354.69654592 -0.12403881 358.914928 -0.12433909 363.13333709 -0.12089889 C364.66631969 -0.12047314 366.19930385 -0.12176943 367.73228335 -0.12488318 C369.80233848 -0.12884622 371.87229795 -0.126764 373.94235134 -0.12304783 C375.09632142 -0.12342755 376.25029151 -0.12380727 377.43923038 -0.1241985 C380 0 380 0 381 1 C381.08685603 2.56172745 381.10702219 4.12729344 381.09765625 5.69140625 C381.09443359 6.63564453 381.09121094 7.57988281 381.08789062 8.55273438 C381.07951172 9.54595703 381.07113281 10.53917969 381.0625 11.5625 C381.05798828 12.55958984 381.05347656 13.55667969 381.04882812 14.58398438 C381.03700007 17.05604849 381.02051849 19.52799518 381 22 C380.20376913 21.99870118 379.40753826 21.99740236 378.58717918 21.99606419 C359.16284761 21.96679127 339.73888447 21.97634284 320.31459618 22.02846622 C310.92089314 22.05274894 301.52751171 22.06416075 292.13378906 22.04467773 C283.94082732 22.02771846 275.74831571 22.03551473 267.55541289 22.07234758 C263.22201394 22.09098304 258.88937526 22.09769061 254.55598068 22.07469368 C250.46633111 22.05338295 246.37806467 22.06549302 242.28853416 22.10184479 C240.79797404 22.10945743 239.30729564 22.10547392 237.81681633 22.08818626 C225.65203989 21.95804862 215.37789575 24.78685219 206.1875 33.1875 C201.00373411 38.99801844 196.5608481 45.48995724 191.9765625 51.7734375 C191.06003906 52.99933594 191.06003906 52.99933594 190.125 54.25 C189.59132813 54.97703125 189.05765625 55.7040625 188.5078125 56.453125 C188.01023437 56.96359375 187.51265625 57.4740625 187 58 C186.01 58 185.02 58 184 58 C182.48535156 56.47460938 182.48535156 56.47460938 180.890625 54.34375 C180.00503906 53.17972656 180.00503906 53.17972656 179.1015625 51.9921875 C178.49054688 51.16976562 177.87953125 50.34734375 177.25 49.5 C169.6475959 38.73332917 169.6475959 38.73332917 160 30 C160 29.34 160 28.68 160 28 C155.69954549 26.53155212 151.37207002 25.23737831 147 24 C146.01 23.67 145.02 23.34 144 23 C136.41 22.67 128.82 22.34 121 22 C121 46.42 121 70.84 121 96 C121.66 96 122.32 96 123 96 C123.37125 96.969375 123.7425 97.93875 124.125 98.9375 C127.29439327 106.27323184 131.51737893 112.31044433 138 117 C138.721875 117.53625 139.44375 118.0725 140.1875 118.625 C144.52634182 120.74621156 149.34057159 121.7292468 154 123 C154 133.89 154 144.78 154 156 C149.2975 157.36125 144.595 158.7225 139.75 160.125 C129.4747585 163.10165659 119.20709777 166.09736911 108.97949219 169.23486328 C105.31746684 170.34935749 101.76403641 171.24719272 98 172 C97.67 122.5 97.34 73 97 22 C89.41 21.67 81.82 21.34 74 21 C74 73.47 74 125.94 74 180 C52 186 52 186 47 187 C47 132.55 47 78.1 47 22 C39.08 22 31.16 22 23 22 C23 79.09 23 136.18 23 195 C15.575 196.98 15.575 196.98 8 199 C3.99434895 200.13038259 -0.00549911 201.26961342 -4 202.4375 C-5.0223877 202.735354 -6.04477539 203.03320801 -7.09814453 203.34008789 C-14.25049401 205.4413654 -21.32688268 207.70319968 -28.3671875 210.15234375 C-31 211 -31 211 -33 211 C-33 181.96 -33 152.92 -33 123 C-29.7 121.68 -26.4 120.36 -23 119 C-17.57223262 116.56143784 -13.97474644 114.52679456 -10 110 C-9.01 108.9171875 -9.01 108.9171875 -8 107.8125 C-7.34 106.884375 -6.68 105.95625 -6 105 C-5.58281204 104.43991241 -5.16562408 103.87982483 -4.73579407 103.30276489 C0.91692339 94.2064003 -0.27034246 83.55738091 -0.29296875 73.2421875 C-0.27983977 71.126542 -0.26453189 69.010909 -0.24714661 66.89529419 C-0.20742446 61.35511615 -0.19711437 55.815267 -0.19311523 50.27496338 C-0.1837597 44.61029159 -0.14633099 38.94581109 -0.11132812 33.28125 C-0.0468824 22.18750884 -0.01353558 11.093912 0 0 Z " fill="#E8CF9A" transform="translate(174,298)"/>
<path d="M0 0 C3.39251058 0.67850212 6.51597568 1.3933634 9.80273438 2.3828125 C10.7271936 2.6597998 11.65165283 2.93678711 12.60412598 3.22216797 C13.5907019 3.52010254 14.57727783 3.81803711 15.59375 4.125 C16.61803101 4.43195801 17.64231201 4.73891602 18.69763184 5.05517578 C23.07173578 6.36609072 27.44423531 7.68232253 31.81689453 8.99804688 C35.01279956 9.95886369 38.20950155 10.91699382 41.40625 11.875 C42.39282593 12.17293457 43.37940186 12.47086914 44.39587402 12.77783203 C45.32033325 13.05481934 46.24479248 13.33180664 47.19726562 13.6171875 C48.00603149 13.86065918 48.81479736 14.10413086 49.64807129 14.35498047 C52.06988559 15.01916622 54.53752641 15.50750528 57 16 C57 66.16 57 116.32 57 168 C49.08 168 41.16 168 33 168 C32.97421875 164.35066406 32.9484375 160.70132813 32.921875 156.94140625 C32.88340567 153.38672341 32.83826096 149.83218321 32.79248047 146.27758789 C32.7643452 143.81704579 32.74309386 141.35641456 32.72900391 138.89575195 C32.70747198 135.34800835 32.66076627 131.80132805 32.609375 128.25390625 C32.60814636 127.1629213 32.60691772 126.07193634 32.60565186 124.94789124 C32.4199943 115.15217976 29.44267446 106.69073201 22.54296875 99.4765625 C15.96775108 93.40949983 8.52227864 90.43493675 0 88 C0 58.96 0 29.92 0 0 Z " fill="#E8CF9A" transform="translate(141,61)"/>
<path d="M0 0 C7.92 0 15.84 0 24 0 C24.00257813 3.61453125 24.00515625 7.2290625 24.0078125 10.953125 C24.0306848 14.48806215 24.06369456 18.02277119 24.09765625 21.55761719 C24.1157259 23.99766593 24.12340132 26.43781624 24.12011719 28.87792969 C23.59852667 47.47665973 23.59852667 47.47665973 31 64 C31.54414551 64.77819092 32.08829102 65.55638184 32.64892578 66.3581543 C36.98592655 72.28404965 43.21041579 75.49720684 50 78 C52.31 78.33 54.62 78.66 57 79 C57 108.37 57 137.74 57 168 C37.75064335 163.18766084 18.81626212 157.27208737 0 151 C0 101.17 0 51.34 0 0 Z " fill="#E5CD98" transform="translate(531,341)"/>
<path d="M0 0 C7.59 0 15.18 0 23 0 C23 42.57 23 85.14 23 129 C9.64615385 125.66153846 9.64615385 125.66153846 3.3125 123.75 C-5.35748772 121.15423212 -14.07332689 118.7295031 -22.79760742 116.32324219 C-23.83248291 116.03610352 -24.8673584 115.74896484 -25.93359375 115.453125 C-26.86228271 115.19692383 -27.79097168 114.94072266 -28.74780273 114.67675781 C-31 114 -31 114 -33 113 C-33 101.78 -33 90.56 -33 79 C-28.71 77.68 -24.42 76.36 -20 75 C-14.27182467 71.34033243 -9.10457902 67.20915805 -6 61 C-5.34 61 -4.68 61 -4 61 C-1.66641286 52.93094003 -0.54134876 45.49629906 -0.48828125 37.109375 C-0.47033005 36.03874817 -0.45237885 34.96812134 -0.43388367 33.86505127 C-0.38032022 30.49340591 -0.34605963 27.12189757 -0.3125 23.75 C-0.27927922 21.44399156 -0.24478527 19.13800108 -0.20898438 16.83203125 C-0.1222627 11.22134034 -0.06173218 5.61124211 0 0 Z " fill="#E7CE99" transform="translate(434,341)"/>
<path d="M0 0 C19 4 19 4 24 6 C25.59840903 6.49803609 27.20281312 6.97721797 28.8125 7.4375 C31.89569585 8.34111705 34.8912393 9.31023321 37.875 10.5 C42.29332033 12.22024767 46.8523154 13.26649451 51.4609375 14.3515625 C54 15 54 15 56 16 C56 26.89 56 37.78 56 49 C53.69 49.66 51.38 50.32 49 51 C40.83523627 53.67298813 33.58982603 57.42678705 29 65 C27.94952356 67.31104818 26.94992562 69.64583651 26 72 C25.6469278 72.78831711 25.29385559 73.57663422 24.93008423 74.38883972 C23.92946894 77.19801207 23.72456593 79.3672336 23.68115234 82.34106445 C23.66128265 83.3817659 23.64141296 84.42246735 23.62094116 85.4947052 C23.60361435 87.16215034 23.60361435 87.16215034 23.5859375 88.86328125 C23.56657135 90.01040085 23.5472052 91.15752045 23.5272522 92.33940125 C23.46755533 95.9970256 23.42110998 99.65468159 23.375 103.3125 C23.33681117 105.79493547 23.29775892 108.27735782 23.2578125 110.75976562 C23.16023963 116.83977481 23.08059066 122.9196471 23 129 C15.41 129 7.82 129 0 129 C0 86.43 0 43.86 0 0 Z " fill="#E7CE99" transform="translate(272,100)"/>
<path d="M0 0 C9.24 0 18.48 0 28 0 C28 47.52 28 95.04 28 144 C24.09543149 143.34923858 20.61167949 142.69460895 16.85546875 141.625 C15.93185547 141.36203125 15.00824219 141.0990625 14.05664062 140.828125 C13.10982422 140.55484375 12.16300781 140.2815625 11.1875 140 C10.22134766 139.72671875 9.25519531 139.4534375 8.25976562 139.171875 C7.34259766 138.90890625 6.42542969 138.6459375 5.48046875 138.375 C4.64410889 138.13523437 3.80774902 137.89546875 2.94604492 137.6484375 C1 137 1 137 0 136 C-0.09632045 134.2410657 -0.1218751 132.47822841 -0.12025452 130.71665955 C-0.12162918 129.57095993 -0.12300385 128.42526031 -0.12442017 127.24484253 C-0.12082489 125.97673737 -0.11722961 124.7086322 -0.11352539 123.40209961 C-0.11324352 122.06206769 -0.11340125 120.72203561 -0.1139679 119.38200378 C-0.11425587 115.73340562 -0.1083592 112.08484005 -0.10139394 108.43624949 C-0.09516034 104.62722484 -0.0945566 100.8181995 -0.09336853 97.00917053 C-0.09025523 89.79142246 -0.08204186 82.57368946 -0.07201904 75.35594803 C-0.06085786 67.14084743 -0.05534744 58.92574612 -0.05032361 50.71063983 C-0.03985925 33.807083 -0.02151379 16.90354693 0 0 Z " fill="#E2CA97" transform="translate(480,341)"/>
<path d="M0 0 C9.06796117 1.13349515 9.06796117 1.13349515 13.5 2.375 C14.3559375 2.60960938 15.211875 2.84421875 16.09375 3.0859375 C19.77825318 4.24477318 23.38348218 5.64380582 27 7 C27 51.88 27 96.76 27 143 C18.09 143 9.18 143 0 143 C0 95.81 0 48.62 0 0 Z " fill="#E6CE99" transform="translate(221,85)"/>
<path d="M0 0 C48.39273284 -0.02202519 96.78546097 -0.04049712 145.17819738 -0.05106533 C150.88499292 -0.05231611 156.59178846 -0.05361043 162.29858398 -0.05493164 C163.43475529 -0.05519395 164.57092659 -0.05545626 165.74152733 -0.05572652 C184.16398728 -0.06008369 202.58644413 -0.0679715 221.00890224 -0.0771528 C239.89706415 -0.08648802 258.78522442 -0.09205533 277.67338854 -0.09408849 C289.33837987 -0.095464 301.00336243 -0.09981604 312.66835106 -0.10791647 C320.65590812 -0.11318231 328.64346061 -0.11480467 336.63101929 -0.11350138 C341.24673154 -0.11285774 345.86242842 -0.11387835 350.47813797 -0.11920547 C354.69654592 -0.12403881 358.914928 -0.12433909 363.13333709 -0.12089889 C364.66631969 -0.12047314 366.19930385 -0.12176943 367.73228335 -0.12488318 C369.80233848 -0.12884622 371.87229795 -0.126764 373.94235134 -0.12304783 C375.09632142 -0.12342755 376.25029151 -0.12380727 377.43923038 -0.1241985 C380 0 380 0 381 1 C381 7.93 381 14.86 381 22 C330.84 22 280.68 22 229 22 C229 21.67 229 21.34 229 21 C278.5 21 328 21 379 21 C379 14.73 379 8.46 379 2 C254.26 2 129.52 2 1 2 C1 31.04 1 60.08 1 90 C0.67 90 0.34 90 0 90 C0 60.3 0 30.6 0 0 Z " fill="#AE9E7C" transform="translate(174,298)"/>
<path d="M0 0 C7.59 0 15.18 0 23 0 C24 1 24 1 24.12304783 3.46565342 C24.12212604 4.57088321 24.12120424 5.676113 24.12025452 6.81483459 C24.12162918 8.07833237 24.12300385 9.34183014 24.12442017 10.64361572 C24.12088055 12.05676293 24.11724574 13.4699099 24.11352539 14.88305664 C24.11324353 16.36101784 24.11340124 17.83897919 24.1139679 19.31694031 C24.1142559 23.34155828 24.1083587 27.36614672 24.10139394 31.3907578 C24.09516088 35.59216365 24.09455664 39.7935701 24.09336853 43.99497986 C24.09025507 51.95646257 24.08204149 59.91793162 24.07201904 67.8794083 C24.06085836 76.94092589 24.05534757 86.00244412 24.05032361 95.06396687 C24.03985888 113.709319 24.02225916 132.35465841 24 151 C23.34 151 22.68 151 22 151 C22 101.83 22 52.66 22 2 C15.07 2 8.14 2 1 2 C1 53.48 1 104.96 1 158 C0.67 158 0.34 158 0 158 C0 105.86 0 53.72 0 0 Z " fill="#625E55" transform="translate(248,319)"/>
<path d="M0 0 C0.66 0 1.32 0 2 0 C2 50.16 2 100.32 2 152 C-5.92 152 -13.84 152 -22 152 C-22 136.49 -22 120.98 -22 105 C-21.67 105 -21.34 105 -21 105 C-21 119.85 -21 134.7 -21 150 C-14.07 150 -7.14 150 0 150 C0 100.5 0 51 0 0 Z " fill="#B1A17D" transform="translate(196,77)"/>
<path d="M0 0 C0.66 0 1.32 0 2 0 C2 10.89 2 21.78 2 33 C-5 35 -5 35 -7 34 C-4.69 33.34 -2.38 32.68 0 32 C0 21.44 0 10.88 0 0 Z " fill="#B7A681" transform="translate(326,116)"/>
<path d="M0 0 C0.66 0.33 1.32 0.66 2 1 C0.90344712 2.31886772 -0.20253423 3.62990057 -1.3125 4.9375 C-1.92738281 5.66839844 -2.54226563 6.39929688 -3.17578125 7.15234375 C-5 9 -5 9 -8 10 C-6.34908222 5.70761377 -3.26245434 3.1206085 0 0 Z " fill="#4E4D4B" transform="translate(384,327)"/>
<path d="M0 0 C0 0.66 0 1.32 0 2 C-2.5 3.5 -2.5 3.5 -5 5 C-5.886875 5.886875 -6.77375 6.77375 -7.6875 7.6875 C-8.450625 8.450625 -9.21375 9.21375 -10 10 C-10.66 10 -11.32 10 -12 10 C-10.58426179 6.60812721 -8.95769034 4.90302459 -6 2.75 C-5.29875 2.22921875 -4.5975 1.7084375 -3.875 1.171875 C-2 0 -2 0 0 0 Z " fill="#57554F" transform="translate(315,153)"/>
<path d="M0 0 C0.66 0 1.32 0 2 0 C0.55746343 3.36591866 -1.33264727 5.51047079 -4 8 C-4.66 7.67 -5.32 7.34 -6 7 C-5.04882866 5.8274869 -4.08882991 4.66212985 -3.125 3.5 C-2.59132813 2.8503125 -2.05765625 2.200625 -1.5078125 1.53125 C-0.76144531 0.77328125 -0.76144531 0.77328125 0 0 Z " fill="#4C4B49" transform="translate(568,156)"/>
</svg>
